<mxfile host="app.diagrams.net" agent="Mozilla/5.0 (Windows NT 10.0; Win64; x64) AppleWebKit/537.36 (KHTML, like Gecko) Chrome/128.0.0.0 Safari/537.36 OPR/114.0.0.0" version="24.8.6">
  <diagram name="Page-1" id="-5a_yTGB8BfFHetPTBox">
    <mxGraphModel dx="3700" dy="2105" grid="0" gridSize="10" guides="1" tooltips="1" connect="1" arrows="1" fold="1" page="1" pageScale="1" pageWidth="1654" pageHeight="1169" background="#000000" math="0" shadow="0">
      <root>
        <mxCell id="0" />
        <mxCell id="1" parent="0" />
        <mxCell id="PgtVWtilIE-5q3GnIlGc-1" value="" style="rounded=0;whiteSpace=wrap;html=1;rotation=-90;fillColor=#ff0000;" parent="1" vertex="1">
          <mxGeometry x="69.5" y="773.5" width="125" height="127" as="geometry" />
        </mxCell>
        <mxCell id="PgtVWtilIE-5q3GnIlGc-2" value="" style="ellipse;whiteSpace=wrap;html=1;aspect=fixed;fillColor=#ff0000;strokeColor=#ff0000;" parent="1" vertex="1">
          <mxGeometry x="34" y="952" width="183" height="183" as="geometry" />
        </mxCell>
        <mxCell id="PgtVWtilIE-5q3GnIlGc-4" value="" style="ellipse;whiteSpace=wrap;html=1;aspect=fixed;fillColor=#ff0000;strokeColor=#ff0000;" parent="1" vertex="1">
          <mxGeometry x="1471" y="25" width="153" height="153" as="geometry" />
        </mxCell>
        <mxCell id="bAGUh_GjZapJnkl1ijTH-1" value="" style="rounded=0;whiteSpace=wrap;html=1;rotation=-90;fillColor=#ff0000;" vertex="1" parent="1">
          <mxGeometry x="1106.25" y="601.25" width="885" height="146.5" as="geometry" />
        </mxCell>
        <mxCell id="bAGUh_GjZapJnkl1ijTH-3" value="" style="rounded=0;whiteSpace=wrap;html=1;rotation=0;fillColor=#ff0000;" vertex="1" parent="1">
          <mxGeometry x="824" y="48" width="588" height="110" as="geometry" />
        </mxCell>
      </root>
    </mxGraphModel>
  </diagram>
</mxfile>
